HIERARCHY
ROOT Hips
{
  OFFSET 5.72205e-005 65.662 3.42586
  CHANNELS 6 Xposition Yposition Zposition Zrotation Xrotation Yrotation
  JOINT Chest
  {
    OFFSET 0 8.7983 -4.7612
    CHANNELS 6 Xposition Yposition Zposition Zrotation Xrotation Yrotation
    JOINT Chest2
    {
      OFFSET 0 8.0291 0.4195
      CHANNELS 6 Xposition Yposition Zposition Zrotation Xrotation Yrotation
      JOINT Chest3
      {
        OFFSET 0 9.9351 -2.2114
        CHANNELS 6 Xposition Yposition Zposition Zrotation Xrotation Yrotation
        JOINT Neck
        {
          OFFSET 0 22.3885 -0.4656
          CHANNELS 6 Xposition Yposition Zposition Zrotation Xrotation Yrotation
          JOINT Head
          {
            OFFSET -0.0001 12.643 3.4389
            CHANNELS 6 Xposition Yposition Zposition Zrotation Xrotation Yrotation
            End Site
            {
              OFFSET 0.0001 17.6655 0.5274
            }
          }
        }
        JOINT LeftCollar
        {
          OFFSET 2.2603 21.606 7.4023
          CHANNELS 6 Xposition Yposition Zposition Zrotation Xrotation Yrotation
          JOINT LeftShoulder
          {
            OFFSET 13.5163 -1.1332 -5.0146
            CHANNELS 6 Xposition Yposition Zposition Zrotation Xrotation Yrotation
            JOINT LeftElbow
            {
              OFFSET -0.0995 -28.05 -0.2431
              CHANNELS 6 Xposition Yposition Zposition Zrotation Xrotation Yrotation
              JOINT LeftWrist
              {
                OFFSET 0.0679 -23.3996 -0.1402
                CHANNELS 6 Xposition Yposition Zposition Zrotation Xrotation Yrotation
                JOINT LeftFinger1
                {
                  OFFSET 0.7932 -9.069 2.5189
                  CHANNELS 6 Xposition Yposition Zposition Zrotation Xrotation Yrotation
                  JOINT LeftFinger11
                  {
                    OFFSET -0.8272 -3.3923 0.5977
                    CHANNELS 6 Xposition Yposition Zposition Zrotation Xrotation Yrotation
                    JOINT LeftFinger12
                    {
                      OFFSET -0.5649 -2.3158 0.4082
                      CHANNELS 6 Xposition Yposition Zposition Zrotation Xrotation Yrotation
                      End Site
                      {
                        OFFSET -0.4919 -1.6479 0.2673
                      }
                    }
                  }
                }
                JOINT LeftFinger2
                {
                  OFFSET 0.9159 -9.2044 0.2193
                  CHANNELS 6 Xposition Yposition Zposition Zrotation Xrotation Yrotation
                  JOINT LeftFinger21
                  {
                    OFFSET 0.0117 -4.1944 -0.0248
                    CHANNELS 6 Xposition Yposition Zposition Zrotation Xrotation Yrotation
                    JOINT LeftFinger22
                    {
                      OFFSET 0.0071 -2.3249 -0.0142
                      CHANNELS 6 Xposition Yposition Zposition Zrotation Xrotation Yrotation
                      End Site
                      {
                        OFFSET -0.1475 -2.0882 0.0028
                      }
                    }
                  }
                }
                JOINT LeftFinger3
                {
                  OFFSET 0.6113 -8.7231 -2.0637
                  CHANNELS 6 Xposition Yposition Zposition Zrotation Xrotation Yrotation
                  JOINT LeftFinger31
                  {
                    OFFSET -0.1927 -3.8059 -0.2383
                    CHANNELS 6 Xposition Yposition Zposition Zrotation Xrotation Yrotation
                    JOINT LeftFinger32
                    {
                      OFFSET -0.1091 -2.1688 -0.1362
                      CHANNELS 6 Xposition Yposition Zposition Zrotation Xrotation Yrotation
                      End Site
                      {
                        OFFSET -0.2358 -1.9176 -0.0906
                      }
                    }
                  }
                }
                JOINT LeftFinger4
                {
                  OFFSET -0.6151 -8.0947 -3.5641
                  CHANNELS 6 Xposition Yposition Zposition Zrotation Xrotation Yrotation
                  JOINT LeftFinger41
                  {
                    OFFSET -0.4882 -2.341 -0.6462
                    CHANNELS 6 Xposition Yposition Zposition Zrotation Xrotation Yrotation
                    JOINT LeftFinger42
                    {
                      OFFSET -0.3575 -1.7167 -0.4742
                      CHANNELS 6 Xposition Yposition Zposition Zrotation Xrotation Yrotation
                      End Site
                      {
                        OFFSET -0.4187 -1.5237 -0.3496
                      }
                    }
                  }
                }
                JOINT LeftFinger0
                {
                  OFFSET -1.42 -1.8761 1.4223
                  CHANNELS 6 Xposition Yposition Zposition Zrotation Xrotation Yrotation
                  JOINT LeftFinger01
                  {
                    OFFSET -1.1471 -3.4929 2.6334
                    CHANNELS 6 Xposition Yposition Zposition Zrotation Xrotation Yrotation
                    JOINT LeftFinger02
                    {
                      OFFSET -0.823 -2.3 1.6571
                      CHANNELS 6 Xposition Yposition Zposition Zrotation Xrotation Yrotation
                      End Site
                      {
                        OFFSET -0.5822 -1.6914 1.1582
                      }
                    }
                  }
                }
              }
            }
          }
        }
        JOINT RightCollar
        {
          OFFSET -2.2603 21.606 7.4023
          CHANNELS 6 Xposition Yposition Zposition Zrotation Xrotation Yrotation
          JOINT RightShoulder
          {
            OFFSET -13.5187 -1.1334 -5.0155
            CHANNELS 6 Xposition Yposition Zposition Zrotation Xrotation Yrotation
            JOINT RightElbow
            {
              OFFSET 0.0994 -28.0499 -0.2431
              CHANNELS 6 Xposition Yposition Zposition Zrotation Xrotation Yrotation
              JOINT RightWrist
              {
                OFFSET -0.0679 -23.3996 -0.1402
                CHANNELS 6 Xposition Yposition Zposition Zrotation Xrotation Yrotation
                JOINT RightFinger1
                {
                  OFFSET -0.7932 -9.0691 2.5189
                  CHANNELS 6 Xposition Yposition Zposition Zrotation Xrotation Yrotation
                  JOINT RightFinger11
                  {
                    OFFSET 0.8272 -3.3923 0.5977
                    CHANNELS 6 Xposition Yposition Zposition Zrotation Xrotation Yrotation
                    JOINT RightFinger12
                    {
                      OFFSET 0.565 -2.3158 0.4082
                      CHANNELS 6 Xposition Yposition Zposition Zrotation Xrotation Yrotation
                      End Site
                      {
                        OFFSET 0.4919 -1.6479 0.2673
                      }
                    }
                  }
                }
                JOINT RightFinger2
                {
                  OFFSET -0.916 -9.2044 0.2193
                  CHANNELS 6 Xposition Yposition Zposition Zrotation Xrotation Yrotation
                  JOINT RightFinger21
                  {
                    OFFSET -0.0117 -4.1944 -0.0248
                    CHANNELS 6 Xposition Yposition Zposition Zrotation Xrotation Yrotation
                    JOINT RightFinger22
                    {
                      OFFSET -0.0071 -2.3249 -0.0142
                      CHANNELS 6 Xposition Yposition Zposition Zrotation Xrotation Yrotation
                      End Site
                      {
                        OFFSET 0.1475 -2.0882 0.0028
                      }
                    }
                  }
                }
                JOINT RightFinger3
                {
                  OFFSET -0.6113 -8.7231 -2.0637
                  CHANNELS 6 Xposition Yposition Zposition Zrotation Xrotation Yrotation
                  JOINT RightFinger31
                  {
                    OFFSET 0.1927 -3.8059 -0.2383
                    CHANNELS 6 Xposition Yposition Zposition Zrotation Xrotation Yrotation
                    JOINT RightFinger32
                    {
                      OFFSET 0.1091 -2.1688 -0.1362
                      CHANNELS 6 Xposition Yposition Zposition Zrotation Xrotation Yrotation
                      End Site
                      {
                        OFFSET 0.2358 -1.9176 -0.0906
                      }
                    }
                  }
                }
                JOINT RightFinger4
                {
                  OFFSET 0.6151 -8.0947 -3.564
                  CHANNELS 6 Xposition Yposition Zposition Zrotation Xrotation Yrotation
                  JOINT RightFinger41
                  {
                    OFFSET 0.4882 -2.341 -0.6462
                    CHANNELS 6 Xposition Yposition Zposition Zrotation Xrotation Yrotation
                    JOINT RightFinger42
                    {
                      OFFSET 0.3574 -1.7166 -0.4742
                      CHANNELS 6 Xposition Yposition Zposition Zrotation Xrotation Yrotation
                      End Site
                      {
                        OFFSET 0.4187 -1.5237 -0.3496
                      }
                    }
                  }
                }
                JOINT RightFinger0
                {
                  OFFSET 1.4199 -1.8761 1.4221
                  CHANNELS 6 Xposition Yposition Zposition Zrotation Xrotation Yrotation
                  JOINT RightFinger01
                  {
                    OFFSET 1.1472 -3.4929 2.6336
                    CHANNELS 6 Xposition Yposition Zposition Zrotation Xrotation Yrotation
                    JOINT RightFinger02
                    {
                      OFFSET 0.8229 -2.3 1.6571
                      CHANNELS 6 Xposition Yposition Zposition Zrotation Xrotation Yrotation
                      End Site
                      {
                        OFFSET 0.5822 -1.6914 1.1582
                      }
                    }
                  }
                }
              }
            }
          }
        }
      }
    }
  }
  JOINT RightHip
  {
    OFFSET -9.412 3.9771 -0.7758
    CHANNELS 6 Xposition Yposition Zposition Zrotation Xrotation Yrotation
    JOINT RightKnee
    {
      OFFSET -0.7531 -40.938 0
      CHANNELS 6 Xposition Yposition Zposition Zrotation Xrotation Yrotation
      JOINT RightAnkle
      {
        OFFSET 0 -40.1986 0
        CHANNELS 6 Xposition Yposition Zposition Zrotation Xrotation Yrotation
        JOINT RightToe
        {
          OFFSET 0 -4.4182 9.239
          CHANNELS 6 Xposition Yposition Zposition Zrotation Xrotation Yrotation
          End Site
          {
            OFFSET 0 0 6.1981
          }
        }
      }
    }
  }
  JOINT LeftHip
  {
    OFFSET 9.4119 3.9773 -0.7758
    CHANNELS 6 Xposition Yposition Zposition Zrotation Xrotation Yrotation
    JOINT LeftKnee
    {
      OFFSET 0.7532 -40.9383 0
      CHANNELS 6 Xposition Yposition Zposition Zrotation Xrotation Yrotation
      JOINT LeftAnkle
      {
        OFFSET 0 -40.1986 0
        CHANNELS 6 Xposition Yposition Zposition Zrotation Xrotation Yrotation
        JOINT LeftToe
        {
          OFFSET 0 -4.4182 9.239
          CHANNELS 6 Xposition Yposition Zposition Zrotation Xrotation Yrotation
          End Site
          {
            OFFSET 0 0 6.1981
          }
        }
      }
    }
  }
}
MOTION
Frames:	4
Frame Time:	0.0333333
34.8209 27.6678 14.9949 92.8372 89.9863 135.156 -7.10543e-015 8.7983 -4.7612 7.403 3.71613 3.85816 0 8.0291 0.4195 14.5901 7.89173 7.22866 -3.55271e-015 9.9351 -2.2114 14.5901 7.89175 7.22865 3.55271e-015 22.3885 -0.4656 -0.000196297 -35.8029 -9.08505e-005 -0.0001 12.643 3.4389 -1.59247e-005 -25.4265 4.3093e-008 2.2603 21.606 7.4023 9.34958 1.14806 25.2318 13.5163 -1.1332 -5.0146 75.129 -12.4719 -22.869 -0.0995 -28.05 -0.2431 73.5194 -54.6721 47.0133 0.0679 -23.3996 -0.1402 -8.96694 3.19192 -8.93423 0.7932 -9.069 2.5189 -1.59028e-015 -1.59028e-015 9.54166e-015 -0.8272 -3.3923 0.5977 -2.38542e-015 1.59028e-015 -3.18055e-015 -0.5649 -2.3158 0.4082 0 0 -0 0.9159 -9.2044 0.2193 -1.59028e-015 -1.59028e-015 9.54166e-015 0.0117 -4.1944 -0.0248 -0.0128442 0.00232983 8.17016e-005 0.0071 -2.3249 -0.0142 9.43701e-006 -5.93467e-007 3.08346e-006 0.6113 -8.7231 -2.0637 -1.59028e-015 -1.59028e-015 9.54166e-015 -0.1927 -3.8059 -0.2383 -0.0160352 0.00299567 0.000855612 -0.1091 -2.1688 -0.1362 -1.59028e-015 3.18055e-015 9.54166e-015 -0.6151 -8.0947 -3.5641 -1.59028e-015 -1.59028e-015 9.54166e-015 -0.4882 -2.341 -0.6462 -0.0125706 0.00311558 0.00282609 -0.3575 -1.7167 -0.4742 1.35174e-014 -6.36111e-015 -0 -1.42 -1.8761 1.4223 -1.59028e-015 -1.59028e-015 9.54166e-015 -1.1471 -3.4929 2.6334 -2.38542e-015 1.59028e-015 -3.18055e-015 -0.823 -2.3 1.6571 0 0 -0 -2.2603 21.606 7.4023 27.0498 6.56662 26.4077 -13.5187 -1.1334 -5.0155 -24.7633 20.7528 -73.8196 0.0994 -28.0499 -0.2431 0.793179 -1.51555 -15.253 -0.0679 -23.3996 -0.1402 29.5506 9.22951 -2.74315 -0.7932 -9.0691 2.5189 -2.78373e-007 -4.10659e-007 -1.84136e-006 0.8272 -3.3923 0.5977 -4.77083e-015 -9.54166e-015 -0 0.565 -2.3158 0.4082 -2.78373e-007 -2.87568e-007 -1.84136e-006 -0.916 -9.2044 0.2193 -2.78373e-007 -4.10659e-007 -1.84136e-006 -0.0117 -4.1944 -0.0248 0.0129214 0.00231172 -8.5565e-005 -0.0071 -2.3249 -0.0142 -2.68302e-006 6.10926e-007 -1.35393e-006 -0.6113 -8.7231 -2.0637 -2.78373e-007 -4.10659e-007 -1.84136e-006 0.1927 -3.8059 -0.2383 0.0163372 0.00303839 -0.000881554 0.1091 -2.1688 -0.1362 1.11319e-014 3.18055e-015 3.18055e-015 0.6151 -8.0947 -3.564 -2.78373e-007 -4.10659e-007 -1.84136e-006 0.4882 -2.341 -0.6462 0.0145353 0.00366537 -0.00325832 0.3574 -1.7166 -0.4742 4.66254e-006 -6.94516e-007 -2.22849e-007 1.4199 -1.8761 1.4221 -2.78373e-007 -4.10659e-007 -1.84136e-006 1.1472 -3.4929 2.6336 -4.77083e-015 -9.54166e-015 -0 0.8229 -2.3 1.6571 -2.78373e-007 -2.87568e-007 -1.84136e-006 -9.412 3.9771 -0.7758 145.397 -36.4762 154.491 -0.7531 -40.938 0 85.2322 47.5598 -84.8741 -3.55271e-015 -40.1986 7.10543e-015 -0.954202 7.84706 10.5447 0 -4.4182 9.239 -7.95139e-016 3.18055e-015 1.98785e-015 9.4119 3.9773 -0.7758 130.861 -46.6463 129.287 0.7532 -40.9383 -3.55271e-015 44.4884 69.5448 -41.1441 3.55271e-015 -40.1986 -3.55271e-015 -18.4808 6.42541 9.80333 0 -4.4182 9.239 -1.13728e-005 -4.18064e-007 3.58499e-006 
34.8214 27.6663 15.2288 92.8372 89.9863 135.156 1.42109e-014 8.7983 -4.7612 7.56349 3.75133 3.82358 0 8.0291 0.4195 14.9131 7.96681 7.14348 -7.10543e-015 9.9351 -2.2114 14.9131 7.96683 7.14348 0 22.3885 -0.4656 -0.000112231 -35.3616 -3.06831e-005 -0.0001 12.643 3.4389 -2.49046e-005 -25.1112 -1.52985e-005 2.2603 21.606 7.4023 8.10823 1.37448 24.8718 13.5163 -1.1332 -5.0146 75.129 -12.4719 -22.8689 -0.0995 -28.05 -0.2431 72.8111 -54.518 46.4433 0.0679 -23.3996 -0.1402 -8.41452 3.14281 -9.16716 0.7932 -9.069 2.5189 3.18055e-015 2.54444e-014 3.18055e-015 -0.8272 -3.3923 0.5977 1.14762e-030 2.06736e-014 -3.18055e-015 -0.5649 -2.3158 0.4082 7.95139e-016 2.54444e-014 3.18055e-015 0.9159 -9.2044 0.2193 3.18055e-015 2.54444e-014 3.18055e-015 0.0117 -4.1944 -0.0248 -0.0128232 0.00232398 7.96335e-005 0.0071 -2.3249 -0.0142 1.59028e-015 1.59028e-015 -0 0.6113 -8.7231 -2.0637 3.18055e-015 2.54444e-014 3.18055e-015 -0.1927 -3.8059 -0.2383 -0.0160721 0.00300178 0.000856678 -0.1091 -2.1688 -0.1362 7.95139e-016 -1.59028e-015 -0 -0.6151 -8.0947 -3.5641 3.18055e-015 2.54444e-014 3.18055e-015 -0.4882 -2.341 -0.6462 -0.0125722 0.00311647 0.00282373 -0.3575 -1.7167 -0.4742 -0 -7.95139e-015 -0 -1.42 -1.8761 1.4223 3.18055e-015 2.54444e-014 3.18055e-015 -1.1471 -3.4929 2.6334 1.14762e-030 2.06736e-014 -3.18055e-015 -0.823 -2.3 1.6571 7.95139e-016 2.54444e-014 3.18055e-015 -2.2603 21.606 7.4023 26.4964 6.56949 26.4258 -13.5187 -1.1334 -5.0155 -25.025 20.741 -73.6992 0.0994 -28.0499 -0.2431 0.793232 -1.51548 -15.253 -0.0679 -23.3996 -0.1402 29.4053 9.11637 -2.71215 -0.7932 -9.0691 2.5189 -6.36111e-015 -3.18055e-015 4.77083e-015 0.8272 -3.3923 0.5977 -5.50539e-006 -1.07275e-005 -5.29397e-006 0.565 -2.3158 0.4082 3.18055e-015 -6.36111e-015 -1.59028e-015 -0.916 -9.2044 0.2193 -6.36111e-015 -3.18055e-015 4.77083e-015 -0.0117 -4.1944 -0.0248 0.0129672 0.00231859 -9.09267e-005 -0.0071 -2.3249 -0.0142 1.59028e-015 -2.22639e-014 4.77083e-015 -0.6113 -8.7231 -2.0637 -6.36111e-015 -3.18055e-015 4.77083e-015 0.1927 -3.8059 -0.2383 0.0163044 0.00302909 -0.000873566 0.1091 -2.1688 -0.1362 3.18055e-015 -3.18055e-015 -0 0.6151 -8.0947 -3.564 -6.36111e-015 -3.18055e-015 4.77083e-015 0.4882 -2.341 -0.6462 0.0146185 0.00367879 -0.00327251 0.3574 -1.7166 -0.4742 0 0 -3.18055e-015 1.4199 -1.8761 1.4221 -6.36111e-015 -3.18055e-015 4.77083e-015 1.1472 -3.4929 2.6336 -5.50539e-006 -1.07275e-005 -5.29397e-006 0.8229 -2.3 1.6571 3.18055e-015 -6.36111e-015 -1.59028e-015 -9.412 3.9771 -0.7758 144.897 -36.1398 154.704 -0.7531 -40.938 7.10543e-015 85.1904 47.5579 -84.8219 7.10543e-015 -40.1986 3.55271e-015 -0.359652 7.62056 10.0283 3.55271e-015 -4.4182 9.239 1.11319e-014 -6.36111e-015 9.54166e-015 9.4119 3.9773 -0.7758 130.404 -46.5763 129.219 0.7532 -40.9383 -1.06581e-014 44.4392 69.5284 -41.0939 3.55271e-015 -40.1986 3.55271e-015 -18.2319 6.33712 9.50212 3.55271e-015 -4.4182 9.239 1.68163e-005 3.00531e-006 -4.71907e-006 
34.8219 27.6648 15.4626 92.8169 89.9863 135.177 0 8.7983 -4.7612 7.7241 3.78648 3.78903 0 8.0291 0.4195 15.2364 8.04154 7.0581 -3.55271e-015 9.9351 -2.2114 15.2364 8.04156 7.0581 -3.55271e-015 22.3885 -0.4656 -0.000164002 -34.9199 -6.94508e-005 -0.0001 12.643 3.4389 -5.79783e-006 -24.7957 -1.0159e-005 2.2603 21.606 7.4023 6.8655 1.60915 24.5161 13.5163 -1.1332 -5.0146 75.129 -12.4719 -22.8689 -0.0995 -28.05 -0.2431 72.1081 -54.3598 45.8787 0.0679 -23.3996 -0.1402 -7.86213 3.09144 -9.39965 0.7932 -9.069 2.5189 -2.38542e-015 0 6.36111e-015 -0.8272 -3.3923 0.5977 7.95139e-016 -3.44584e-006 3.18055e-015 -0.5649 -2.3158 0.4082 -7.95139e-016 6.36111e-015 6.36111e-015 0.9159 -9.2044 0.2193 -2.38542e-015 0 6.36111e-015 0.0117 -4.1944 -0.0248 -0.0128338 0.00231957 8.3444e-005 0.0071 -2.3249 -0.0142 -7.95139e-016 1.45105e-006 3.18055e-015 0.6113 -8.7231 -2.0637 -2.38542e-015 0 6.36111e-015 -0.1927 -3.8059 -0.2383 -0.0160408 0.00298977 0.000856146 -0.1091 -2.1688 -0.1362 8.82781e-032 1.59028e-015 -3.18055e-015 -0.6151 -8.0947 -3.5641 -2.38542e-015 0 6.36111e-015 -0.4882 -2.341 -0.6462 -0.0125993 0.00312424 0.0028379 -0.3575 -1.7167 -0.4742 -3.53113e-031 6.36111e-015 3.18055e-015 -1.42 -1.8761 1.4223 -2.38542e-015 0 6.36111e-015 -1.1471 -3.4929 2.6334 7.95139e-016 -3.44584e-006 3.18055e-015 -0.823 -2.3 1.6571 -7.95139e-016 6.36111e-015 6.36111e-015 -2.2603 21.606 7.4023 25.9428 6.57217 26.4439 -13.5187 -1.1334 -5.0155 -25.2866 20.7287 -73.5789 0.0994 -28.0499 -0.2431 0.793263 -1.5155 -15.253 -0.0679 -23.3996 -0.1402 29.2599 9.00316 -2.68138 -0.7932 -9.0691 2.5189 5.68546e-007 -2.47383e-006 3.67774e-006 0.8272 -3.3923 0.5977 -2.25883e-006 -1.09853e-005 -2.54291e-007 0.565 -2.3158 0.4082 1.59028e-015 -1.59028e-014 3.18055e-015 -0.916 -9.2044 0.2193 5.68546e-007 -2.47383e-006 3.67774e-006 -0.0117 -4.1944 -0.0248 0.0129916 0.00232297 -8.81546e-005 -0.0071 -2.3249 -0.0142 -1.59028e-015 0 -0 -0.6113 -8.7231 -2.0637 5.68546e-007 -2.47383e-006 3.67774e-006 0.1927 -3.8059 -0.2383 0.0163401 0.00303028 -0.000863967 0.1091 -2.1688 -0.1362 1.59028e-015 -3.18055e-015 -3.18055e-015 0.6151 -8.0947 -3.564 5.68546e-007 -2.47383e-006 3.67774e-006 0.4882 -2.341 -0.6462 0.0145964 0.00368361 -0.00326482 0.3574 -1.7166 -0.4742 6.36111e-015 6.36111e-015 -0 1.4199 -1.8761 1.4221 5.68546e-007 -2.47383e-006 3.67774e-006 1.1472 -3.4929 2.6336 -2.25883e-006 -1.09853e-005 -2.54291e-007 0.8229 -2.3 1.6571 1.59028e-015 -1.59028e-014 3.18055e-015 -9.412 3.9771 -0.7758 144.398 -35.8048 154.919 -0.7531 -40.938 0 85.1488 47.556 -84.7699 -3.55271e-015 -40.1986 0 0.232561 7.38841 9.51417 0 -4.4182 9.239 1.44934e-005 -1.70895e-006 -3.54281e-006 9.4119 3.9773 -0.7758 129.947 -46.5059 129.153 0.7532 -40.9383 1.42109e-014 44.3906 69.5121 -41.0444 0 -40.1986 3.55271e-015 -17.9836 6.24738 9.20136 -3.55271e-015 -4.4182 9.239 1.36064e-006 1.69121e-006 -9.16351e-007 
34.8225 27.6635 15.6964 92.8372 89.9863 135.156 7.10543e-015 8.7983 -4.7612 7.88477 3.82163 3.75443 0 8.0291 0.4195 15.56 8.11596 6.97251 3.55271e-015 9.9351 -2.2114 15.56 8.11595 6.97255 0 22.3885 -0.4656 -0.000149341 -34.4776 -6.23604e-005 -0.0001 12.643 3.4389 -1.57392e-005 -24.4801 -2.67898e-006 2.2603 21.606 7.4023 5.62178 1.85191 24.1649 13.5163 -1.1332 -5.0146 75.129 -12.4719 -22.8689 -0.0995 -28.05 -0.2431 71.4102 -54.1976 45.3195 0.0679 -23.3996 -0.1402 -7.30975 3.0378 -9.63175 0.7932 -9.069 2.5189 7.95139e-016 -9.54166e-015 3.18055e-015 -0.8272 -3.3923 0.5977 7.95139e-016 -4.77083e-015 -0 -0.5649 -2.3158 0.4082 9.12589e-007 -1.76119e-006 -3.10113e-006 0.9159 -9.2044 0.2193 7.95139e-016 -9.54166e-015 3.18055e-015 0.0117 -4.1944 -0.0248 -0.0128214 0.00232573 8.85075e-005 0.0071 -2.3249 -0.0142 -2.38542e-015 4.77083e-015 -0 0.6113 -8.7231 -2.0637 7.95139e-016 -9.54166e-015 3.18055e-015 -0.1927 -3.8059 -0.2383 -0.0160385 0.00299202 0.000855243 -0.1091 -2.1688 -0.1362 4.56221e-007 -4.25592e-007 -1.55053e-006 -0.6151 -8.0947 -3.5641 7.95139e-016 -9.54166e-015 3.18055e-015 -0.4882 -2.341 -0.6462 -0.0125922 0.00312021 0.002829 -0.3575 -1.7167 -0.4742 2.64834e-031 -4.77083e-015 3.18055e-015 -1.42 -1.8761 1.4223 7.95139e-016 -9.54166e-015 3.18055e-015 -1.1471 -3.4929 2.6334 7.95139e-016 -4.77083e-015 -0 -0.823 -2.3 1.6571 9.12589e-007 -1.76119e-006 -3.10113e-006 -2.2603 21.606 7.4023 25.3889 6.57468 26.4621 -13.5187 -1.1334 -5.0155 -25.5483 20.7158 -73.4585 0.0994 -28.0499 -0.2431 0.793235 -1.51546 -15.2529 -0.0679 -23.3996 -0.1402 29.1148 8.88985 -2.65098 -0.7932 -9.0691 2.5189 0 0 -3.18055e-015 0.8272 -3.3923 0.5977 -3.18055e-015 -3.18055e-015 -0 0.565 -2.3158 0.4082 -9.44586e-007 -7.37195e-007 -1.30813e-006 -0.916 -9.2044 0.2193 0 0 -3.18055e-015 -0.0117 -4.1944 -0.0248 0.0129688 0.0023131 -8.91699e-005 -0.0071 -2.3249 -0.0142 -1.31472e-006 3.26172e-007 1.0589e-006 -0.6113 -8.7231 -2.0637 0 0 -3.18055e-015 0.1927 -3.8059 -0.2383 0.0163633 0.00303762 -0.000877675 0.1091 -2.1688 -0.1362 -2.86999e-007 -4.13165e-007 -1.83763e-006 0.6151 -8.0947 -3.564 0 0 -3.18055e-015 0.4882 -2.341 -0.6462 0.0145495 0.00367051 -0.00325738 0.3574 -1.7166 -0.4742 -2.86992e-007 -1.44227e-006 -1.83765e-006 1.4199 -1.8761 1.4221 0 0 -3.18055e-015 1.1472 -3.4929 2.6336 -3.18055e-015 -3.18055e-015 -0 0.8229 -2.3 1.6571 -9.44586e-007 -7.37195e-007 -1.30813e-006 -9.412 3.9771 -0.7758 143.9 -35.4714 155.138 -0.7531 -40.938 3.55271e-015 85.1072 47.5541 -84.7179 -3.55271e-015 -40.1986 3.55271e-015 0.822397 7.15071 9.00253 -3.55271e-015 -4.4182 9.239 3.21281e-006 1.37192e-006 -6.91932e-006 9.4119 3.9773 -0.7758 129.492 -46.4353 129.087 0.7532 -40.9383 -3.55271e-015 44.3422 69.4957 -40.9951 0 -40.1986 7.10543e-015 -17.7361 6.15636 8.90105 0 -4.4182 9.239 -1.09584e-005 -2.58441e-006 1.19791e-006 
